<?xml version="1.0" standalone="no"?>
<!DOCTYPE svg PUBLIC "-//W3C//DTD SVG 20010904//EN"
 "http://www.w3.org/TR/2001/REC-SVG-20010904/DTD/svg10.dtd">
<svg version="1.0" xmlns="http://www.w3.org/2000/svg"
 width="103.000000pt" height="107.000000pt" viewBox="0 0 103.000000 107.000000"
 preserveAspectRatio="xMidYMid meet">
<metadata>
Created by potrace 1.16, written by Peter Selinger 2001-2019
</metadata>
<g transform="translate(0.000000,107.000000) scale(0.100000,-0.100000)"
fill="#000000" stroke="none">
<path d="M757 1041 c-24 -41 -84 -86 -145 -110 -28 -11 -123 -34 -212 -50
-178 -33 -238 -56 -318 -122 -74 -61 -82 -79 -82 -196 0 -112 16 -181 61 -270
29 -58 69 -108 69 -87 0 5 5 48 10 95 28 246 113 360 360 484 165 83 248 153
286 244 17 41 17 41 1 41 -7 0 -20 -13 -30 -29z"/>
<path d="M824 1043 c-32 -105 -101 -181 -286 -315 -181 -131 -228 -190 -264
-331 -19 -73 -14 -212 10 -293 15 -49 19 -52 73 -74 43 -17 85 -24 161 -28 56
-2 102 -3 102 -1 0 2 -20 44 -45 93 -60 120 -81 218 -67 309 15 95 54 169 171
325 110 144 147 209 160 278 8 44 -4 73 -15 37z"/>
<path d="M865 988 c-11 -68 -51 -165 -104 -252 -110 -184 -136 -259 -129 -380
6 -103 44 -189 118 -261 l50 -50 48 25 c52 28 182 150 182 171 0 8 -20 22 -45
33 -59 24 -143 100 -166 151 -29 63 -25 151 12 257 40 116 59 208 59 286 0 71
-15 83 -25 20z"/>
</g>
</svg>
